<svg width="22" height="22" viewBox="0 0 22 22" fill="none" xmlns="http://www.w3.org/2000/svg">
<g clip-path="url(#clip0)">
<path d="M21.998 10.9309C22.0201 16.9094 17.0076 21.9138 10.999 21.9138C4.99045 21.9138 0.0501172 16.9975 -0.00600009 11.0331C-0.0621174 5.0686 4.9183 0.0360723 10.9429 -3.13636e-06C16.9675 -0.0360786 21.978 4.93231 21.998 10.9309ZM11.015 20.551C12.2729 20.5605 13.5202 20.3211 14.6851 19.8465C15.85 19.3719 16.9095 18.6715 17.8025 17.7857C18.6956 16.8999 19.4046 15.8462 19.8887 14.6852C20.3728 13.5242 20.6224 12.2789 20.6231 11.021C20.6231 5.62375 16.4023 1.37888 11.0291 1.37888C5.61776 1.37888 1.37689 5.58768 1.37489 10.9569C1.37289 16.3261 5.60573 20.543 11.017 20.543L11.015 20.551Z" fill="black"/>
<path d="M5.78412 16.6789C5.65785 16.3161 5.33918 15.8772 5.44741 15.6367C6.46153 13.366 7.54179 11.1253 8.63207 8.88859C8.73429 8.68817 9.03291 8.54387 9.25738 8.43364C11.2616 7.47563 13.2778 6.51362 15.308 5.59971C15.6227 5.45741 16.0436 5.54961 16.4164 5.53157C16.4164 5.90034 16.5286 6.32122 16.3903 6.62786C15.4604 8.68216 14.4883 10.7164 13.5003 12.7426C13.3592 13.0368 13.1302 13.2798 12.8449 13.4381C10.7505 14.4522 8.63608 15.4423 6.53368 16.4203C6.38537 16.4905 6.22304 16.5286 5.78412 16.6789ZM9.99292 9.59206L12.3979 12.0512C13.0694 10.6362 13.7668 9.16316 14.6026 7.41751L9.99292 9.59206Z" fill="black"/>
</g>
<defs>
<clipPath id="clip0">
<rect width="22" height="21.9138" fill="white"/>
</clipPath>
</defs>
</svg>
