<svg width="21" height="22" viewBox="0 0 21 22" fill="none" xmlns="http://www.w3.org/2000/svg">
<g clip-path="url(#clip0)">
<path d="M20.968 15.911C20.968 17.5819 20.9459 19.2528 20.968 20.9237C20.982 21.7017 20.6693 22.004 19.9037 21.994C17.8695 21.9698 15.8332 21.9597 13.8009 21.994C12.9251 22.0121 12.5984 21.6352 12.5984 20.8028C12.6165 19.1661 12.6104 17.5274 12.5984 15.8908C12.5884 14.3852 11.8088 13.5326 10.482 13.5427C9.1993 13.5427 8.37156 14.4678 8.35753 15.9271C8.3435 17.5395 8.31945 19.1339 8.35753 20.7362C8.38359 21.6312 8.08095 22.0141 7.15501 21.996C5.15081 21.9536 3.14661 21.9577 1.15244 21.996C0.272593 22.0121 -0.0320456 21.6251 -0.0280372 20.7866C-0.0120036 17.5113 -0.0420659 14.238 0.00403072 10.9627C0.0341298 10.4751 0.233438 10.0136 0.56721 9.65864C3.60357 6.5607 6.69004 3.50912 9.73642 0.419242C10.3377 -0.18543 10.7626 -0.126976 11.3217 0.437385C14.3982 3.5454 17.4987 6.62923 20.5691 9.74329C20.802 10.0056 20.9366 10.3413 20.9499 10.6926C20.988 12.4301 20.968 14.1675 20.968 15.9029V15.911ZM19.7213 20.5972C19.7213 17.5073 19.7514 14.5504 19.6953 11.5734C19.6691 11.0292 19.4567 10.5108 19.094 10.1061C16.5146 7.45158 13.8831 4.84544 11.2636 2.22721C11.0632 2.02566 10.8307 1.83619 10.5842 1.62254C10.4178 1.75758 10.2816 1.84829 10.1693 1.96116C7.3855 4.74467 4.59565 7.52213 1.83988 10.3318C1.56721 10.6477 1.41145 11.0485 1.39895 11.4666C1.35286 13.202 1.37891 14.9394 1.37891 16.6769V20.5831H7.01472C7.01472 19.8192 6.99869 19.1238 7.01472 18.4304C7.04478 17.2977 7.01472 16.1548 7.15702 15.0362C7.40754 13.1113 9.30151 11.8536 11.1915 12.2607C12.8489 12.6175 13.9192 13.8732 13.9573 15.5844C13.9953 17.2412 13.9573 18.9 13.9573 20.6032L19.7213 20.5972Z" fill="black"/>
</g>
<defs>
<clipPath id="clip0">
<rect width="21" height="22" fill="white"/>
</clipPath>
</defs>
</svg>
