<svg width="12" height="12" viewBox="0 0 12 12" fill="none" xmlns="http://www.w3.org/2000/svg">
<g clip-path="url(#clip0)">
<path d="M6.00704 11.903C4.58379 11.903 3.16053 11.903 1.73728 11.903C0.615271 11.903 0.0127857 11.2979 0.0102328 10.1798C0.00342501 7.77747 0.00342501 5.37517 0.0102328 2.97287C0.0102328 1.89171 0.620379 1.28922 1.69899 1.27263C2.1017 1.25112 2.50533 1.25326 2.90779 1.27901C3.9813 1.39261 4.92205 1.2254 5.58836 0.257841C5.84365 -0.10595 6.17554 -0.0816973 6.42189 0.269329C7.06012 1.17051 7.93195 1.39006 8.97481 1.27646C9.46209 1.23986 9.95134 1.23773 10.4389 1.27008C11.3707 1.30199 11.9949 1.9083 12.0013 2.83757C12.0166 5.32241 12.0166 7.80853 12.0013 10.2959C12.0013 11.2877 11.3631 11.8877 10.3419 11.8966C8.88802 11.9119 7.44434 11.903 6.00704 11.903ZM11.2329 6.56228C11.2329 5.35985 11.2393 4.1587 11.2329 2.95628C11.2329 2.2989 10.9661 2.04488 10.3023 2.03467C9.63858 2.02446 8.98247 1.99638 8.32637 2.04233C7.52731 2.09722 6.85206 1.91469 6.35551 1.26114C6.11426 0.942024 5.88833 0.959895 5.65346 1.26752C5.17224 1.89682 4.5289 2.10105 3.74643 2.04233C3.1082 1.99383 2.46997 2.02957 1.83174 2.0334C1.01225 2.0334 0.778663 2.26954 0.777387 3.08775C0.777387 5.42878 0.777387 7.76896 0.777387 10.1083C0.769096 10.236 0.773369 10.3643 0.790148 10.4912C0.81405 10.6607 0.894719 10.8172 1.01898 10.9349C1.14325 11.0527 1.30376 11.1249 1.47433 11.1397C1.91088 11.2086 1.93641 10.8754 2.02066 10.5972C2.39466 9.35517 3.27159 8.69014 4.60421 8.66333C5.45434 8.64674 6.30574 8.69014 7.15714 8.65439C8.61868 8.59312 9.7726 9.42027 10.0215 10.7286C10.1185 11.2392 10.467 11.2239 10.8423 11.035C11.1971 10.8563 11.2405 10.5244 11.2393 10.1708C11.2227 8.96713 11.2265 7.7647 11.2265 6.56228H11.2329ZM5.96875 11.1422C6.88142 11.1422 7.79409 11.1269 8.70676 11.1422C9.21735 11.155 9.30414 10.9176 9.14203 10.5155C9.02467 10.1933 8.81083 9.91515 8.52963 9.71893C8.24844 9.52271 7.91359 9.41798 7.57071 9.41899C6.50954 9.3807 5.44838 9.3807 4.38721 9.41899C3.64814 9.44325 3.12224 9.84278 2.81589 10.5206C2.62059 10.9533 2.74058 11.1486 3.23074 11.1409C4.13703 11.132 5.0497 11.1409 5.96237 11.1422H5.96875Z" fill="#8E8E8E"/>
<path d="M5.94959 7.87702C5.63228 7.87879 5.31782 7.81701 5.02476 7.6953C4.7317 7.5736 4.46599 7.39444 4.24328 7.1684C4.02057 6.94236 3.84538 6.67401 3.72804 6.37918C3.6107 6.08435 3.55359 5.76901 3.56007 5.45175C3.56338 5.12961 3.63049 4.81133 3.75754 4.51529C3.88459 4.21925 4.06905 3.95132 4.30026 3.72699C4.53148 3.50266 4.80486 3.32638 5.1046 3.20833C5.40435 3.09029 5.72452 3.03282 6.04661 3.03924C6.68588 3.05362 7.29398 3.31831 7.74012 3.77639C8.18626 4.23446 8.43481 4.84934 8.43231 5.48877C8.43231 6.86224 7.35625 7.89362 5.94959 7.87702ZM5.99682 7.10349C6.21842 7.1049 6.43805 7.06191 6.64276 6.97706C6.84747 6.89221 7.03311 6.76721 7.18873 6.60945C7.34435 6.45169 7.46679 6.26436 7.54884 6.05851C7.63088 5.85266 7.67087 5.63246 7.66643 5.4109C7.6648 5.19449 7.62012 4.98057 7.535 4.78159C7.44988 4.58262 7.32602 4.40257 7.17063 4.25193C7.01524 4.1013 6.83143 3.98309 6.62991 3.90418C6.42839 3.82528 6.21318 3.78727 5.99682 3.79235C5.77514 3.78864 5.55502 3.8299 5.34973 3.91365C5.14445 3.9974 4.95828 4.1219 4.80246 4.27962C4.64665 4.43735 4.52442 4.62502 4.44318 4.83131C4.36193 5.0376 4.32335 5.25822 4.32977 5.47983C4.33159 5.69621 4.37627 5.91007 4.46123 6.10908C4.54619 6.30808 4.66974 6.48828 4.82475 6.63925C4.97976 6.79023 5.16315 6.90899 5.36433 6.98867C5.5655 7.06835 5.78048 7.10738 5.99682 7.10349Z" fill="#8E8E8E"/>
</g>
<defs>
<clipPath id="clip0">
<rect width="12" height="11.9068" fill="white"/>
</clipPath>
</defs>
</svg>
