<svg width="22" height="22" viewBox="0 0 22 22" fill="none" xmlns="http://www.w3.org/2000/svg">
<g clip-path="url(#clip0)">
<path d="M21.244 6.56137C19.8135 2.80248 15.6683 -0.568004 9.72715 0.0877147C5.60072 0.538783 2.49545 2.57903 0.918801 6.42563C-0.67873 10.3286 -0.221397 14.1418 2.58942 17.3954C3.47903 18.4395 3.87371 19.4189 3.91339 20.699C3.94471 21.7787 4.4104 22.0585 5.39607 21.5907C6.66574 20.983 7.902 20.4964 9.34708 21.0436C9.84201 21.2315 10.4476 21.1334 10.7963 21.1543C19.3645 21.1355 23.9024 13.5341 21.244 6.56137ZM10.0508 19.7175C8.4533 19.5191 6.84533 18.9323 5.2478 20.0746C5.41695 18.64 4.74661 17.7566 3.9113 16.842C2.59757 15.4251 1.76042 13.6325 1.51736 11.7157C1.27429 9.79887 1.6375 7.85405 2.55601 6.15416C4.43546 2.74818 8.52848 0.885435 12.4356 1.43048C16.8356 2.04443 20.4484 5.36897 20.6217 10.2012C20.8263 16.0067 15.8646 20.4359 10.0467 19.7113L10.0508 19.7175Z" fill="black"/>
<path d="M16.5914 7.68695C15.6287 8.36355 14.689 9.07774 13.7743 9.81699C13.2627 10.2346 12.8346 10.2785 12.3 9.84623C11.5754 9.25733 10.8131 8.71021 10.0384 8.17561C9.22396 7.6243 8.34271 7.67233 7.81438 8.43247C6.65121 10.1031 5.57783 11.8426 4.50237 13.5738C4.39587 13.745 4.52743 14.0604 4.54831 14.311C4.7989 14.2796 5.09753 14.3256 5.29174 14.2045C5.82007 13.8766 6.30038 13.4694 6.80574 13.1081C9.57897 11.1243 8.51186 11.1263 11.2788 13.0601C11.8051 13.4276 12.371 13.7409 13.0664 14.1711C13.5968 13.7534 14.1878 13.484 14.5115 13.0204C15.5389 11.5586 16.4849 10.0175 17.4142 8.47841C17.5729 8.21737 17.4873 7.81225 17.5144 7.47395C17.2033 7.54704 16.8295 7.52198 16.5914 7.68695Z" fill="black"/>
</g>
<defs>
<clipPath id="clip0">
<rect width="22" height="21.7995" fill="white"/>
</clipPath>
</defs>
</svg>
