<svg width="22" height="19" viewBox="0 0 22 19" fill="none" xmlns="http://www.w3.org/2000/svg">
<g clip-path="url(#clip0)">
<path d="M11.02 2.50473C12.2213 1.30342 13.1763 0.526576 14.4237 0.202223C18.9426 -0.975062 22.5125 3.18948 21.9439 7.46615C21.7047 9.16383 20.866 10.7199 19.5793 11.8529C17.1286 14.1014 14.6159 16.2778 12.1232 18.4782C11.4224 19.0968 10.6736 19.1289 9.96682 18.5022C7.36398 16.1837 4.64903 13.9632 2.18834 11.4945C-0.614713 8.69149 -0.676785 4.80324 1.73384 2.04624C2.26444 1.4367 2.91486 0.942937 3.64458 0.595715C4.37431 0.248493 5.16771 0.0552473 5.97537 0.028012C6.78304 0.000776795 7.58766 0.140135 8.33912 0.43741C9.09058 0.734685 9.77279 1.18351 10.3432 1.75592C10.5435 1.96815 10.9879 2.4707 11.02 2.50473ZM11.04 4.99545C10.5394 4.27066 10.139 3.62596 9.6745 3.02931C8.295 1.25537 6.02453 0.800876 4.05037 1.87605C1.49759 3.26356 0.588594 6.72334 2.15831 9.31016C2.61692 10.0814 3.18248 10.7838 3.83814 11.3964C6.1847 13.5428 8.58932 15.6251 11.058 17.8034C13.7249 15.3748 16.3438 13.0743 18.8665 10.6636C19.4917 10.0858 19.9771 9.37315 20.2859 8.57976C20.5946 7.78638 20.7186 6.93309 20.6485 6.08464C20.5123 4.00437 19.0708 2.08027 17.0886 1.49764C15.1064 0.915001 13.3385 1.59174 12.0091 3.4838C11.6807 3.94631 11.4004 4.43284 11.04 4.98945V4.99545Z" fill="black"/>
</g>
<defs>
<clipPath id="clip0">
<rect width="22" height="18.9567" fill="white"/>
</clipPath>
</defs>
</svg>
