<svg width="24" height="13" viewBox="0 0 24 13" fill="none" xmlns="http://www.w3.org/2000/svg">
<g clip-path="url(#clip0)">
<path d="M9.14436 7.45996H2.5829C1.89957 7.45996 1.24423 7.72797 0.761043 8.20504C0.277858 8.68211 0.00640869 9.32916 0.00640869 10.0038V12.7958H11.7316V10.0081C11.7321 9.67276 11.6656 9.34064 11.5357 9.03082C11.4058 8.721 11.2151 8.43959 10.9747 8.20278C10.7342 7.96597 10.4487 7.77843 10.1346 7.65095C9.82051 7.52346 9.48397 7.45856 9.14436 7.45996Z" fill="#222222"/>
<path d="M5.73483 6.16893C7.46017 6.16893 8.85883 4.78797 8.85883 3.08447C8.85883 1.38096 7.46017 0 5.73483 0C4.0095 0 2.61084 1.38096 2.61084 3.08447C2.61084 4.78797 4.0095 6.16893 5.73483 6.16893Z" fill="#222222"/>
<path d="M23.8497 3.30282C23.752 3.20728 23.6201 3.15368 23.4826 3.15368C23.3451 3.15368 23.2131 3.20728 23.1154 3.30282L17.3183 9.02657L14.6495 6.39152C14.5518 6.29598 14.4199 6.24239 14.2824 6.24239C14.1449 6.24239 14.0129 6.29598 13.9152 6.39152C13.8184 6.48798 13.7642 6.61826 13.7642 6.75403C13.7642 6.88979 13.8184 7.02007 13.9152 7.11653L16.9512 10.1141C17.0489 10.2096 17.1808 10.2632 17.3183 10.2632C17.4558 10.2632 17.5878 10.2096 17.6855 10.1141L23.8583 4.01934C23.9514 3.92217 24.0025 3.79308 24.0009 3.65936C23.9993 3.52565 23.9451 3.39779 23.8497 3.30282Z" fill="#222222"/>
</g>
<defs>
<clipPath id="clip0">
<rect width="24" height="12.8" fill="white"/>
</clipPath>
</defs>
</svg>
