<svg width="12" height="12" viewBox="0 0 12 12" fill="none" xmlns="http://www.w3.org/2000/svg">
<g clip-path="url(#clip0)">
<path d="M5.9507 11.8961C4.21891 11.8961 2.48711 11.8788 0.764643 11.9067C0.177165 11.9161 -0.00268035 11.6989 0.00131609 11.1328C0.01819 7.67983 0.01819 4.22735 0.00131609 0.775305C0.00131609 0.211806 0.1745 -0.00267033 0.76331 -6.02999e-06C4.26509 0.0204202 7.76686 0.0204202 11.2686 -6.02999e-06C11.8241 -6.02999e-06 12 0.203813 11.9987 0.739337C11.9827 4.21358 11.9827 7.68827 11.9987 11.1634C11.9987 11.7642 11.7549 11.9107 11.1994 11.9041C9.45291 11.8814 7.70114 11.8961 5.9507 11.8961ZM3.734 2.23933C3.734 0.801947 3.734 0.801948 2.30327 0.801948H2.238C0.805939 0.801948 0.805939 0.801948 0.805939 2.238C0.805939 3.70337 0.805939 3.70337 2.2713 3.70337C3.73667 3.70337 3.734 3.70736 3.734 2.23933ZM6.01997 3.7047C7.46135 3.7047 7.46135 3.7047 7.46135 2.28063V2.21402C7.46135 0.799282 7.46136 0.799283 6.00798 0.799283C4.53329 0.799283 4.53329 0.799283 4.53329 2.26465C4.53329 3.73001 4.53329 3.70736 6.02263 3.70736L6.01997 3.7047ZM11.1887 2.31127C11.1887 0.799284 11.1887 0.799283 9.70069 0.799283C8.26064 0.799283 8.26064 0.799284 8.26064 2.22601C8.26064 3.7047 8.26065 3.7047 9.78063 3.7047C11.194 3.70736 11.194 3.70736 11.194 2.31393L11.1887 2.31127ZM3.72868 5.93072C3.72868 4.49733 3.72867 4.49733 2.29395 4.49733H2.22867C0.80061 4.49733 0.800606 4.49733 0.800606 5.93738C0.800606 7.40274 0.800606 7.40274 2.26597 7.40274C3.73133 7.40274 3.734 7.40541 3.734 5.93338L3.72868 5.93072ZM7.45869 5.97601C7.45869 4.49733 7.45869 4.49733 6.00398 4.49733C4.54927 4.49733 4.53062 4.49733 4.53062 5.96269C4.53062 7.42805 4.53063 7.40807 6.01864 7.40807C7.46402 7.40541 7.46402 7.40541 7.46402 5.97868L7.45869 5.97601ZM11.1887 5.92805C11.1887 4.49733 11.1887 4.49733 9.75132 4.49733H9.68471C8.26064 4.49733 8.26064 4.49733 8.26064 5.94004C8.26064 7.38276 8.26064 7.40541 9.72601 7.40541C11.1914 7.40541 11.194 7.40541 11.194 5.93072L11.1887 5.92805ZM2.28063 11.1008C3.734 11.1008 3.734 11.1008 3.734 9.68738V9.6221C3.734 8.19537 3.734 8.19537 2.29261 8.19537C0.805936 8.19537 0.805939 8.19537 0.805939 9.64208C0.805939 11.0888 0.803271 11.1035 2.28329 11.1035L2.28063 11.1008ZM4.53329 9.59146C4.53329 11.1034 4.53329 11.1035 6.0213 11.1035C7.46135 11.1035 7.46135 11.1034 7.46135 9.67672C7.46135 8.19803 7.46136 8.19803 5.94137 8.19803C4.53329 8.19803 4.53329 8.19803 4.53329 9.59146ZM9.78595 8.19803C8.26064 8.19803 8.26064 8.19804 8.26064 9.67139C8.26064 11.1035 8.26064 11.1035 9.69537 11.1035C11.1887 11.1035 11.1887 11.1034 11.1887 9.59679C11.194 8.19803 11.194 8.19803 9.78862 8.19803H9.78595Z" fill="#262626"/>
</g>
<defs>
<clipPath id="clip0">
<rect width="12" height="11.9067" fill="white"/>
</clipPath>
</defs>
</svg>
