<svg width="12" height="12" viewBox="0 0 12 12" fill="none" xmlns="http://www.w3.org/2000/svg">
<g clip-path="url(#clip0)">
<path d="M0.018733 5.9663C0.018733 5.09988 -0.0249615 4.23096 0.027473 3.36829C0.152317 1.43571 1.37204 0.156058 3.31337 0.0636739C5.09614 -0.0199716 6.89014 -0.0224685 8.67292 0.0636739C10.6043 0.161052 11.8415 1.39701 11.9363 3.30962C12.0237 5.05743 12.0175 6.81648 11.9363 8.56555C11.8539 10.4207 10.7591 11.588 8.87142 11.7903C6.94881 11.9944 5.01 11.9944 3.0874 11.7903C1.18852 11.588 0.131095 10.3958 0.0212323 8.49438C-0.0287053 7.65169 0.0124923 6.804 0.0124923 5.95881L0.018733 5.9663ZM5.98877 3.73908C4.40825 3.73908 2.82897 3.73908 1.2447 3.73908C0.952567 3.73908 0.730345 3.7266 0.737835 4.14108C0.761556 5.54308 0.712867 6.94757 0.760308 8.34832C0.816488 10.0125 1.63422 10.97 3.27467 11.1099C5.07734 11.2665 6.89021 11.2665 8.69289 11.1099C10.382 10.9588 11.1798 9.96505 11.216 8.22597C11.2422 6.90637 11.201 5.58552 11.2335 4.26717C11.2447 3.80774 11.0724 3.73034 10.6604 3.73533C9.10613 3.75156 7.54682 3.73908 5.98877 3.73908ZM7.92885 2.99002C7.50313 2.24095 7.13734 1.6055 6.77654 0.963798C6.75323 0.906525 6.71357 0.857391 6.6625 0.822531C6.61143 0.787671 6.55122 0.768632 6.4894 0.767794H3.67292C4.09739 1.51686 4.46942 2.14732 4.82523 2.79151C4.92385 2.97129 5.06617 2.99002 5.23846 2.99002C6.0899 2.99251 6.94133 2.99376 7.92885 2.99376V2.99002ZM7.60675 0.821476C7.74415 1.02616 7.86242 1.24305 7.96006 1.46942C8.38578 2.79276 9.29214 3.20225 10.6342 3.01374C11.1498 2.94133 11.1473 2.80649 10.9938 2.41948C10.5056 1.20225 9.31586 0.619228 7.60675 0.825221V0.821476ZM0.883902 2.73533C0.833965 3.03746 1.06368 2.98502 1.23971 2.98502C2.02623 2.98502 2.81399 2.97753 3.60176 2.99126C3.93883 2.99126 4.07741 2.93508 3.86518 2.58802C3.57554 2.11361 3.30712 1.62672 3.03496 1.14233C2.94882 0.990016 2.86143 0.88265 2.65294 0.902625C1.98752 0.976283 0.913865 2.07366 0.883902 2.73908V2.73533Z" fill="#8E8E8E"/>
<path d="M4.49188 7.30213C4.49188 6.809 4.47565 6.31587 4.49188 5.82398C4.51061 5.37329 4.75655 5.23347 5.15605 5.45694C6.00125 5.9301 6.84519 6.40825 7.6779 6.90388C8.1211 7.16855 8.12609 7.48191 7.69039 7.74283C6.85809 8.24221 6.01748 8.72452 5.16854 9.18977C4.74532 9.42198 4.51061 9.27467 4.49188 8.78029C4.47316 8.2859 4.49064 7.79527 4.49188 7.30213Z" fill="#8E8E8E"/>
</g>
<defs>
<clipPath id="clip0">
<rect width="12" height="11.9513" fill="white"/>
</clipPath>
</defs>
</svg>
