<svg width="10" height="10" viewBox="0 0 10 10" fill="none" xmlns="http://www.w3.org/2000/svg">
<g clip-path="url(#clip0)">
<path d="M4.58504 8.89292C3.67891 8.89394 2.79279 8.63421 2.03871 8.14654C1.28463 7.65888 0.696423 6.96517 0.348447 6.15312C0.000470249 5.34107 -0.0916528 4.44712 0.0837096 3.58426C0.259072 2.7214 0.694051 1.92836 1.33367 1.30538C1.97329 0.682411 2.78885 0.257468 3.67724 0.0842636C4.56563 -0.0889413 5.48699 -0.00262955 6.32485 0.332286C7.16272 0.667201 7.87948 1.23569 8.38454 1.96589C8.8896 2.69609 9.16029 3.55523 9.1624 4.43472C9.16345 5.01916 9.04588 5.59808 8.81641 6.13843C8.58694 6.67877 8.25007 7.16996 7.82503 7.58394C7.39998 7.99793 6.89508 8.3266 6.33916 8.55119C5.78325 8.77579 5.1872 8.89191 4.58504 8.89292ZM4.58504 0.378991C3.75709 0.377971 2.94743 0.615404 2.25857 1.06123C1.56971 1.50705 1.03262 2.14122 0.715291 2.88346C0.397959 3.6257 0.314651 4.44264 0.47592 5.23085C0.637189 6.01907 1.03578 6.74312 1.62124 7.31136C2.20669 7.87959 2.95268 8.26646 3.76479 8.42299C4.57689 8.57951 5.41858 8.49866 6.18332 8.19066C6.94805 7.88266 7.60143 7.36137 8.06076 6.69277C8.5201 6.02417 8.76472 5.23833 8.76367 4.43472C8.75946 3.36104 8.31761 2.33263 7.53465 1.57415C6.75169 0.815662 5.69126 0.388768 4.58504 0.386731V0.378991Z" fill="#8E8E8E"/>
<path d="M7.66195 7.46014L7.38 7.73379L9.71823 10.0032L10.0002 9.7296L7.66195 7.46014Z" fill="#8E8E8E"/>
</g>
<defs>
<clipPath id="clip0">
<rect width="10" height="10" fill="white"/>
</clipPath>
</defs>
</svg>
