<svg width="12" height="12" viewBox="0 0 12 12" fill="none" xmlns="http://www.w3.org/2000/svg">
<g clip-path="url(#clip0)">
<path d="M12 5.94622C12 9.21452 9.30206 11.9024 6.00625 11.9062C2.71044 11.91 0.00250244 9.23078 0.00250244 5.95998C0.00250244 2.68918 2.69544 0.00250244 5.9925 0.00250244C9.28956 0.00250244 11.995 2.67543 12 5.94622ZM11.2495 5.93872C11.237 4.55497 10.6775 3.23238 9.69332 2.25965C8.70911 1.28691 7.38004 0.743027 5.99625 0.746718C3.1132 0.746718 0.755473 3.07818 0.742965 5.93746C0.744921 6.62759 0.883227 7.31052 1.14994 7.94703C1.41665 8.58353 1.8065 9.16107 2.2971 9.64644C2.7877 10.1318 3.36938 10.5155 4.00871 10.7753C4.64803 11.0352 5.33241 11.1662 6.02252 11.1607C7.40671 11.1571 8.73323 10.6059 9.71236 9.62746C10.6915 8.64903 11.2437 7.32291 11.2483 5.93872H11.2495Z" fill="#8E8E8E"/>
<path d="M3.99997 5.96623C3.99997 5.34834 3.98246 4.72795 3.99997 4.11007C4.02624 3.37711 4.53405 3.08443 5.18196 3.4384C6.27389 4.03502 7.35957 4.6429 8.43399 5.2758C9.20448 5.73233 9.18446 6.24515 8.39522 6.70794C7.4121 7.28413 6.42232 7.84949 5.42586 8.404C4.56908 8.87679 4.00622 8.54158 3.99997 7.57598C3.99622 7.0394 3.99872 6.50656 3.99997 5.96623ZM4.76545 7.88242C5.85863 7.25703 6.90054 6.68417 7.91117 6.06254C8.16883 5.90494 7.85238 5.80237 7.74606 5.73983C7.06814 5.33959 6.38479 4.94976 5.69603 4.57036C5.4046 4.41026 5.14819 4.1551 4.76545 4.13758V7.88242Z" fill="#8E8E8E"/>
</g>
<defs>
<clipPath id="clip0">
<rect width="12" height="11.9062" fill="white"/>
</clipPath>
</defs>
</svg>
